<?xml version="1.0" encoding="UTF-8"?>
<svg xmlns="http://www.w3.org/2000/svg" version="1.1" viewBox="0 0 300 108.4">
  <defs>
    <style>
      .cls-1 {
        fill: #221e1f;
      }

      .cls-2 {
        fill: #fff;
      }

      .cls-3 {
        fill: none;
      }

      .cls-4 {
        fill: #87c540;
      }
    </style>
  </defs>
  <!-- Generator: Adobe Illustrator 28.7.1, SVG Export Plug-In . SVG Version: 1.2.0 Build 142)  -->
  <g>
    <g id="Layer_1">
      <g>
        <g>
          <path class="cls-3" d="M85.5,12.7c-3.2-.2-6,2.1-6.2,5.3-.2,3.2,2.1,6,5.3,6.2,3.2.2,6-2.1,6.2-5.3s-2.1-6-5.3-6.2Z"/>
          <path class="cls-3" d="M58.1,18.1c-.2-3.2-3-5.6-6.2-5.4-3.2.2-5.6,3-5.4,6.2.2,3.2,3,5.6,6.2,5.4,3.2-.2,5.6-3,5.4-6.2Z"/>
          <path d="M64.2,49.7c.1-.5.2-.9.2-1,.1-.6,1.6-3.2,3.6-6.4-3.9-6.3-9.4-14.8-11-17.4,2.1-1.5,3.3-4.1,3.2-6.8-.3-4.3-4-7.6-8.4-7.3-4.3.3-7.6,4-7.3,8.4.3,4.3,4,7.6,8.4,7.3.8,0,1.6-.2,2.3-.5,3,8,6,15.9,9,23.9ZM52.7,24.2c-3.2.2-5.9-2.2-6.2-5.4-.2-3.2,2.2-5.9,5.4-6.2,3.2-.2,5.9,2.2,6.2,5.4.2,3.2-2.2,5.9-5.4,6.2Z"/>
          <path d="M83.5,96.7c-.9-4.3-9.4-45.3-9.8-47.2,0,0,0,0,0,0-1.4,3.5-2.7,7.1-4.1,10.6,4.6,12.2,9.2,24.5,13.9,36.7,0,0,0,0,0,0Z"/>
          <path class="cls-2" d="M69.1,48.7c-1.1,0-2,.9-2.1,2,0,1.1.9,2,2,2.1,1.1,0,2-.9,2.1-2,0-1.1-.9-2-2-2.1Z"/>
          <path d="M92.9,19c.1-1.4-.2-2.8-.8-4,.7-1.3,2.2-3.2,3.9-2.8,1,.2,1.5-1.3.5-1.7-1.4-.6-3.5-.5-7,1.5-1.1-.8-2.5-1.3-4-1.4-4.3-.3-8.1,2.9-8.4,7.2-.2,2.8,1,5.3,3.1,6.9-1.8,2.7-7.7,11.8-11.7,18.2-2,3.3-3.5,5.8-3.6,6.4,0,.1-.1.5-.2,1-1.5,6.8-9,42.1-9.9,46.1,0,0,0,0,0,0,4.6-11.9,9.2-23.8,13.8-35.8,1.4-3.5,2.7-7.1,4.1-10.6,3.1-8.1,6.3-16.3,9.4-24.4.7.3,1.5.5,2.3.5,4.3.3,8.1-2.9,8.4-7.2ZM69.1,52.8c-1.1,0-2-.9-2-2.1,0-1.1.9-2,2.1-2,1.1,0,2,.9,2,2.1,0,1.1-.9,2-2.1,2ZM84.7,24.2c-3.2-.2-5.6-3-5.3-6.2.2-3.2,3-5.6,6.2-5.3,3.2.2,5.6,3,5.3,6.2s-3,5.6-6.2,5.3Z"/>
          <path d="M63.3,76.5s0,0,0,0c-.1,0-.2,0-.2.2,0,.9-.2,1.8-.1,2.8,0,.3.2.6.6.6h10.7c.4,0,.9,0,1.1-.4,0,0,0-.1,0-.2,0-.1,0-.3,0-.4,0-.8-.1-1.6-.2-2.4,0-.1-.1-.2-.2-.2h0c-.1,0-.2,0-.2.2v2s0,0,0,0h0s0,0,0,0v-2.1c0,0,0-.1-.1-.1s-.1,0-.1.1v2.1s0,0,0,0h0s0,0,0,0v-2.1c0,0,0-.1-.1-.1s-.1,0-.1.1v2.1s0,0,0,0h0s0,0,0,0v-2.1c0,0,0-.1-.1-.1s-.1,0-.1.1v2.1s0,0,0,0h0s0,0,0,0v-2.1c0,0,0-.1-.1-.1s-.1,0-.1.1v2.1s0,0,0,0,0,0,0,0v-2.1c0,0,0-.1-.1-.1s-.1,0-.1.1v2.1s0,0,0,0h0s0,0,0,0v-2.1c0,0,0-.1-.1-.1s-.1,0-.1.1v2.1s0,0,0,0h0s0,0,0,0v-2.1c0,0,0-.1-.1-.1s-.1,0-.1.1v2.1s0,0,0,0h0s0,0,0,0v-2.1c0,0,0-.1-.1-.1s-.1,0-.1.1v2.1s0,0,0,0h0s0,0,0,0v-2.1c0,0,0-.1-.1-.1s-.1,0-.1.1v2.1s0,0,0,0h0s0,0,0,0v-2.1c0,0,0-.1-.1-.1s-.1,0-.1.1v2.1s0,0,0,0h0s0,0,0,0v-2.1c0,0,0-.1-.1-.1s-.1,0-.1.1v2.1s0,0,0,0h0s0,0,0,0v-2.1c0,0,0-.1-.1-.1s-.1,0-.1.1v2.1s0,0,0,0h0s0,0,0,0v-2.1c0,0,0-.1-.1-.1s-.1,0-.1.1v2.1s0,0,0,0h0s0,0,0,0v-2.1c0,0,0-.1-.1-.1s-.1,0-.1.1v2.1s0,0,0,0h0s0,0,0,0v-2.1c0,0,0-.1-.1-.1s-.1,0-.1.1v2.1s0,0,0,0h0s0,0,0,0v-2.1c0,0,0-.1-.1-.1s-.1,0-.1.1v2.1s0,0,0,0,0,0,0,0v-2.1c0,0,0-.1-.1-.1s-.1,0-.1.1v2.1s0,0,0,0h0s0,0,0,0v-2.1c0,0,0-.1-.1-.1s-.1,0-.1.1v2.1s0,0,0,0h0s0,0,0,0v-2.1c0,0,0-.1-.1-.1s-.1,0-.1.1v2.1s0,0,0,0h0s0,0,0,0v-2.1c0,0,0-.1-.1-.1s-.1,0-.1.1v2.1s0,0,0,0h0s0,0,0,0v-2.1c0,0,0-.1-.1-.1s-.1,0-.1.1v2.1s0,0,0,0h0s0,0,0,0v-2.1c0,0,0-.1-.1-.1s-.1,0-.1.1v2.1s0,0,0,0h0s0,0,0,0v-2.1c0,0,0-.1-.1-.1s-.1,0-.1.1v2.1s0,0,0,0h0s0,0,0,0v-2.1c0,0,0-.1-.1-.1s-.1,0-.1.1v2.1s0,0,0,0,0,0,0,0v-2.1c0,0,0-.1-.1-.1s-.1,0-.1.1v2.1s0,0,0,0h0s0,0,0,0v-2.1c0,0,0-.1-.1-.1s-.1,0-.1.1v2.1s0,0,0,0h0s0,0,0,0v-2.1c0,0,0-.1-.1-.1s-.1,0-.1.1v2.1s0,0,0,0h0s0,0,0,0v-2.1c0,0,0-.1-.1-.1s-.1,0-.1.1v2.1s0,0,0,0h0s0,0,0,0v-2c0-.1,0-.2-.2-.2Z"/>
        </g>
        <path class="cls-1" d="M7.7,82v-47.4h9.8v19.3h18.7v-19.3h9.9v47.4h-9.9v-20.6h-18.7v20.6H7.7Z"/>
        <g>
          <path class="cls-1" d="M93.2,82v-47.4h9.9v47.4h-9.9Z"/>
          <path class="cls-1" d="M113,82v-47.4h17c11.4,0,17,4.7,17,14.1s-2.8,10-8.4,12.1v.3l11.7,20.8h-11.3l-9.4-18.6h-6.9v18.6h-9.8ZM122.7,56.9h6.1c2.9,0,4.9-.6,6.2-1.9,1.3-1.3,1.9-3.2,1.9-5.8s-.6-4.4-1.9-5.6c-1.3-1.1-3.3-1.7-6.2-1.7h-6v15Z"/>
        </g>
        <g>
          <path class="cls-4" d="M166.9,82v-47.4h9.8v19.3h18.7v-19.3h9.9v47.4h-9.9v-20.6h-18.7v20.6h-9.8Z"/>
          <path class="cls-4" d="M233.8,82.8c-12.7,0-19.1-5.8-19.1-17.5v-30.6h9.9v30.1c0,3.9.8,6.7,2.3,8.3,1.5,1.6,4,2.4,7.3,2.4s5.5-.8,6.9-2.4c1.4-1.6,2.1-4.4,2.1-8.4v-30h9v30.4c0,6-1.5,10.5-4.5,13.4-3,2.9-7.6,4.3-13.9,4.3Z"/>
          <path class="cls-4" d="M261.5,82v-47.4h17.7c10.5,0,15.8,4,15.8,11.9s-2.6,8.7-7.9,10.4v.2c6.5,1.1,9.8,4.9,9.8,11.3s-1.4,7.3-4.2,9.8c-2.8,2.5-7,3.7-12.5,3.7h-18.8ZM271.3,54.6h6.1c5.3,0,8-2.2,8-6.6s-.6-4-1.9-5c-1.3-1-3.2-1.5-5.8-1.5h-6.4v13.1ZM271.3,75h7.3c5.6,0,8.4-2.4,8.4-7.3s-2.9-7-8.7-7h-7v14.3Z"/>
        </g>
      </g>
    </g>
  </g>
</svg>